<svg width="190" height="47" viewBox="0 0 190 47" fill="none" xmlns="http://www.w3.org/2000/svg">
<path d="M33.2576 34.671L36.0726 36.03C36.0635 36.107 36.0588 36.1845 36.0586 36.262C36.0577 36.4577 36.0871 36.6523 36.1456 36.839L28.4676 42.416L31.6796 35.245C31.7384 35.251 31.7975 35.254 31.8566 35.254C32.1168 35.2537 32.3745 35.202 32.6147 35.102C32.8549 35.002 33.0741 34.8555 33.2576 34.671ZM21.3826 35.859C21.5269 35.6472 21.6288 35.4095 21.6826 35.159L30.0826 34.144C30.1885 34.3606 30.3328 34.5561 30.5086 34.721L27.0736 42.391C27.014 42.3828 26.9538 42.3787 26.8936 42.379C26.69 42.3782 26.4875 42.4096 26.2936 42.472L21.3826 35.859ZM3.87461 36.842C3.93166 36.655 3.96097 36.4606 3.96161 36.265C3.9607 36.1534 3.951 36.0421 3.93261 35.932L7.46261 34L11.4486 42.345L3.87461 36.842ZM33.8226 33.45C33.8287 33.3932 33.8317 33.3361 33.8316 33.279C33.8326 32.759 33.6273 32.2598 33.2606 31.891L36.4146 25.505L37.2266 34.464C37.0571 34.5363 36.8996 34.6341 36.7596 34.754L33.8226 33.45ZM27.1006 25.061L30.4546 31.887C30.1884 32.1555 30.0045 32.4945 29.9246 32.864L21.5246 33.879C21.4577 33.7407 21.3751 33.6105 21.2786 33.491L26.4266 25.14C26.4586 25.14 26.4936 25.146 26.5266 25.146C26.72 25.1461 26.9124 25.1178 27.0976 25.062M8.77561 32.578L12.8756 25.102C13.0784 25.0582 13.2731 24.983 13.4526 24.879L18.3856 33.32C18.2676 33.4343 18.1645 33.5629 18.0786 33.703L8.77561 32.578ZM37.6546 24.972C37.9001 24.8608 38.1204 24.7009 38.3023 24.502C38.4841 24.3031 38.6237 24.0694 38.7126 23.815H40.4196C40.5488 24.1844 40.7835 24.5077 41.0946 24.745L38.3876 33.079L37.6546 24.972ZM32.1076 15.018L35.4466 21.781C35.0809 22.1506 34.8757 22.6495 34.8757 23.1695C34.8757 23.6895 35.0809 24.1884 35.4466 24.558L32.1076 31.32C32.0251 31.3085 31.9419 31.3028 31.8586 31.303C31.7763 31.3028 31.6941 31.3085 31.6126 31.32L28.1606 24.291C28.3893 23.9615 28.5118 23.57 28.5118 23.169C28.5118 22.768 28.3893 22.3765 28.1606 22.047L31.6076 15.018C31.6892 15.0281 31.7714 15.0337 31.8536 15.035C31.9369 15.0352 32.0201 15.0295 32.1026 15.018M20.1836 13.518L25.2216 21.686C25.0119 21.8711 24.844 22.0986 24.729 22.3535C24.614 22.6084 24.5545 22.8848 24.5545 23.1645C24.5545 23.4442 24.614 23.7206 24.729 23.9755C24.844 24.2304 25.0119 24.4579 25.2216 24.643L20.1836 32.811C20.0419 32.7785 19.897 32.762 19.7516 32.762C19.6846 32.762 19.6216 32.762 19.5576 32.771L14.3256 23.817C14.4002 23.6077 14.4384 23.3872 14.4386 23.165C14.4357 22.9431 14.3976 22.723 14.3256 22.513L19.5576 13.559C19.6216 13.565 19.6856 13.568 19.7516 13.568C19.897 13.568 20.0419 13.5515 20.1836 13.519M37.6536 21.363L38.3866 13.256L41.0936 21.59C40.7825 21.8273 40.5478 22.1506 40.4186 22.52H38.7126C38.6242 22.2653 38.4848 22.0314 38.3029 21.8324C38.121 21.6335 37.8994 21.4738 37.6536 21.363ZM12.8716 21.233L9.20761 14.56C9.44382 14.3048 9.60628 13.9903 9.67761 13.65L18.0696 12.635C18.1563 12.7745 18.2593 12.9031 18.3766 13.018L13.4456 21.459C13.2661 21.355 13.0714 21.2798 12.8686 21.236M21.2776 12.847C21.3739 12.7273 21.4564 12.5971 21.5236 12.459L29.9236 13.474C30.0035 13.8435 30.1874 14.1825 30.4536 14.451L27.0996 21.277C26.9145 21.2207 26.7221 21.1924 26.5286 21.193C26.4936 21.193 26.4586 21.193 26.4286 21.199L21.2776 12.847ZM33.2546 14.447C33.6212 14.0782 33.8265 13.579 33.8256 13.059C33.8255 13.0019 33.8225 12.9448 33.8166 12.888L36.7526 11.588C36.8949 11.7047 37.0519 11.8022 37.2196 11.878L36.4076 20.838L33.2546 14.447ZM3.92961 10.4C3.94812 10.291 3.95782 10.1806 3.95861 10.07C3.95965 9.87684 3.93133 9.68465 3.87461 9.5L11.4466 4L7.97261 11.27C7.89862 11.2609 7.82415 11.2562 7.74961 11.256C7.2587 11.2567 6.78552 11.4395 6.42161 11.769L3.92961 10.4ZM28.4666 3.922L32.0836 6.551L36.1416 9.5C36.0846 9.68705 36.0552 9.88145 36.0546 10.077C36.0549 10.1545 36.0595 10.232 36.0686 10.309L33.2546 11.668C33.0711 11.4836 32.8529 11.3372 32.6127 11.2373C32.3724 11.1374 32.1148 11.086 31.8546 11.086C31.7936 11.086 31.7356 11.086 31.6776 11.094L28.4666 3.922ZM13.6516 3.884L18.1516 10.432C17.9499 10.7069 17.8231 11.0294 17.7836 11.368L9.51961 12.368C9.42231 12.1664 9.29106 11.9831 9.13161 11.826L12.6186 4.526L12.8966 3.943C12.9706 3.95208 13.0451 3.95675 13.1196 3.957C13.298 3.95689 13.4757 3.93267 13.6476 3.885M23.4956 11.4L21.6836 11.18C21.6303 10.9293 21.5284 10.6915 21.3836 10.48L26.2966 3.865C26.491 3.92496 26.6932 3.9553 26.8966 3.955C26.9546 3.955 27.0156 3.955 27.0736 3.946L30.5086 11.616C30.3337 11.7817 30.1895 11.977 30.0826 12.193L23.4956 11.4ZM13.1236 2.53188e-07C12.8639 -0.000131187 12.6068 0.0509157 12.3669 0.150223C12.127 0.24953 11.909 0.395149 11.7254 0.578757C11.5418 0.762365 11.3961 0.98036 11.2968 1.22028C11.1975 1.4602 11.1465 1.71734 11.1466 1.977C11.1457 2.17267 11.1751 2.36729 11.2336 2.554L3.11461 8.454C2.80928 8.24115 2.45006 8.11881 2.07828 8.10106C1.70651 8.0833 1.33727 8.17087 1.01305 8.35366C0.688827 8.53646 0.422794 8.80707 0.245551 9.13436C0.0683091 9.46165 -0.012942 9.83233 0.0111449 10.2037C0.0352319 10.5752 0.163679 10.9322 0.381709 11.2339C0.599739 11.5356 0.898495 11.7695 1.24361 11.9089C1.58873 12.0483 1.96618 12.0875 2.33255 12.0218C2.69892 11.9562 3.03933 11.7885 3.31461 11.538L5.80761 12.9C5.78897 13.01 5.77927 13.1214 5.77861 13.233C5.77861 13.7573 5.9869 14.2602 6.35766 14.6309C6.72842 15.0017 7.23128 15.21 7.75561 15.21C7.8672 15.2091 7.97854 15.1994 8.08861 15.181L11.5176 21.436C11.2068 21.6064 10.9476 21.8572 10.767 22.1622C10.5864 22.4672 10.4911 22.8151 10.4911 23.1695C10.4911 23.5239 10.5864 23.8718 10.767 24.1768C10.9476 24.4818 11.2068 24.7326 11.5176 24.903L7.27761 32.636L3.30761 34.81C3.03233 34.5595 2.69192 34.3918 2.32555 34.3262C1.95918 34.2605 1.58173 34.2997 1.23661 34.4391C0.891495 34.5785 0.592739 34.8124 0.374709 35.1141C0.156678 35.4158 0.0282319 35.7728 0.00414494 36.1443C-0.019942 36.5157 0.0613091 36.8864 0.238551 37.2136C0.415794 37.5409 0.681827 37.8115 1.00605 37.9943C1.33027 38.1771 1.69951 38.2647 2.07128 38.2469C2.44306 38.2292 2.80228 38.1069 3.10761 37.894L11.2266 43.794C11.1696 43.981 11.1402 44.1754 11.1396 44.371C11.1396 44.762 11.2556 45.1442 11.4728 45.4694C11.69 45.7945 11.9988 46.0479 12.36 46.1975C12.7213 46.3471 13.1188 46.3863 13.5023 46.31C13.8858 46.2337 14.2381 46.0454 14.5146 45.769C14.791 45.4925 14.9793 45.1402 15.0556 44.7567C15.1319 44.3732 15.0928 43.9757 14.9431 43.6144C14.7935 43.2532 14.5401 42.9444 14.215 42.7272C13.8899 42.5099 13.5076 42.394 13.1166 42.394C13.0421 42.3943 12.9676 42.399 12.8936 42.408L8.83661 33.9L17.7876 34.984C17.843 35.4657 18.0735 35.9102 18.4353 36.233C18.797 36.5558 19.2648 36.7345 19.7496 36.735C19.9533 36.7358 20.1557 36.7044 20.3496 36.642L25.2626 43.257C25.0879 43.5126 24.9756 43.8056 24.9348 44.1125C24.8941 44.4194 24.9259 44.7316 25.0279 45.0239C25.1298 45.3162 25.299 45.5805 25.5218 45.7955C25.7446 46.0105 26.0148 46.1701 26.3106 46.2616C26.6063 46.3531 26.9195 46.3738 27.2247 46.3221C27.53 46.2704 27.8188 46.1477 28.068 45.964C28.3171 45.7802 28.5197 45.5405 28.6593 45.2642C28.7988 44.9879 28.8716 44.6826 28.8716 44.373C28.8725 44.1773 28.8431 43.9827 28.7846 43.796L32.8426 40.848L36.9036 37.897C37.2343 38.13 37.6291 38.2548 38.0336 38.254C38.4486 38.2554 38.8535 38.126 39.1907 37.8841C39.528 37.6423 39.7804 37.3003 39.9121 36.9068C40.0439 36.5133 40.0483 36.0882 39.9247 35.6921C39.8011 35.2959 39.5558 34.9488 39.2236 34.7L42.3236 25.155C42.8487 25.155 43.3524 24.9464 43.7237 24.5751C44.095 24.2037 44.3036 23.7001 44.3036 23.175C44.3036 22.6499 44.095 22.1463 43.7237 21.7749C43.3524 21.4036 42.8487 21.195 42.3236 21.195L39.2236 11.65C39.6331 11.3368 39.9039 10.876 39.9782 10.3659C40.0525 9.85575 39.9245 9.33679 39.6213 8.91983C39.3182 8.50286 38.8641 8.22094 38.3559 8.13428C37.8477 8.04762 37.3258 8.16307 36.9016 8.456L28.7856 2.556C28.8427 2.36895 28.872 2.17455 28.8726 1.979C28.8718 1.66962 28.7984 1.36474 28.6583 1.0889C28.5182 0.813055 28.3153 0.573942 28.066 0.390794C27.8166 0.207646 27.5278 0.0855752 27.2226 0.0344004C26.9175 -0.0167744 26.6046 0.00437539 26.3092 0.0961486C26.0137 0.187922 25.7439 0.347757 25.5215 0.562797C25.2991 0.777836 25.1302 1.04208 25.0285 1.33427C24.9268 1.62646 24.8951 1.93844 24.9359 2.24512C24.9767 2.55179 25.089 2.8446 25.2636 3.1L20.3506 9.71C20.1567 9.64764 19.9543 9.61625 19.7506 9.617C19.5684 9.61796 19.3871 9.64318 19.2116 9.692L14.7076 3.151C14.9253 2.85728 15.0572 2.5089 15.0886 2.14465C15.12 1.78041 15.0497 1.41459 14.8855 1.08795C14.7213 0.761298 14.4696 0.48664 14.1586 0.294556C13.8475 0.102472 13.4892 0.000501676 13.1236 2.53188e-07Z" fill="white"/>
<path d="M52.3667 34.8544H53.1207V31.8544H52.3667V34.8544ZM52.7467 31.4974C53.0827 31.4974 53.1867 31.3854 53.1867 31.0744C53.1867 30.7634 53.0807 30.6514 52.7467 30.6514C52.4127 30.6514 52.3037 30.7634 52.3037 31.0744C52.3037 31.3854 52.4037 31.4974 52.7467 31.4974Z" fill="white"/>
<path d="M54.6366 32.8954C54.6358 32.7618 54.6421 32.6283 54.6556 32.4954C54.8038 32.4397 54.9613 32.4129 55.1196 32.4164C55.6386 32.4164 55.7196 32.5934 55.7196 33.0164V34.8524H56.4676V32.9454C56.4676 32.2984 56.3506 31.8144 55.2676 31.8144C54.802 31.7977 54.3393 31.8934 53.9186 32.0934C53.9026 32.2874 53.8936 32.4594 53.8936 32.6644V34.8544H54.6416V32.8934L54.6366 32.8954Z" fill="white"/>
<path d="M57.4558 31.1252V31.8522H56.9668V32.4202H57.4558V34.0462C57.4558 34.6142 57.7238 34.8902 58.3558 34.8902C58.5282 34.8866 58.7001 34.8692 58.8698 34.8382L58.8128 34.3082C58.7278 34.3132 58.6438 34.3162 58.5588 34.3162C58.3078 34.3162 58.2038 34.2162 58.2038 33.9692V32.4182H58.8038V31.8502H58.2038V31.0002L57.4558 31.1252Z" fill="white"/>
<path d="M59.9807 33.1983C59.9807 32.7283 60.0547 32.3873 60.6067 32.3873C61.0327 32.3873 61.1777 32.6003 61.1777 32.9933C61.1784 33.0333 61.1764 33.0734 61.1717 33.1133C60.9967 33.1383 60.6937 33.1623 60.4967 33.1733L59.9807 33.1983ZM60.5437 34.8913C60.9832 34.8911 61.4219 34.8526 61.8547 34.7763L61.7917 34.2113C61.434 34.2603 61.0737 34.2867 60.7127 34.2903C60.2787 34.2903 60.0297 34.1753 60.0027 33.7053L60.4977 33.6803C60.9097 33.6583 61.5737 33.5933 61.9147 33.5333C61.9207 33.4513 61.9257 33.3723 61.9257 33.2923C61.9257 32.3853 61.7017 31.8123 60.6067 31.8123C59.6067 31.8123 59.2627 32.2633 59.2627 33.3503C59.2627 34.2383 59.5277 34.8913 60.5437 34.8913Z" fill="white"/>
<path d="M62.5339 34.0893C62.5128 34.4206 62.6202 34.7472 62.8339 35.0013L63.4919 34.6933C63.3478 34.505 63.2742 34.2722 63.2839 34.0353V30.6913H62.5359L62.5339 34.0893Z" fill="white"/>
<path d="M64.0236 34.0893C64.0025 34.4206 64.11 34.7472 64.3236 35.0013L64.9816 34.6933C64.8375 34.505 64.764 34.2722 64.7736 34.0353V30.6913H64.0236V34.0893Z" fill="white"/>
<path d="M65.5488 34.8544H66.3028V31.8544H65.5488V34.8544ZM65.9288 31.4974C66.2648 31.4974 66.3688 31.3854 66.3688 31.0744C66.3688 30.7634 66.2628 30.6514 65.9288 30.6514C65.5948 30.6514 65.4888 30.7634 65.4888 31.0744C65.4888 31.3854 65.5888 31.4974 65.9288 31.4974Z" fill="white"/>
<path d="M68.3516 32.3983C68.5099 32.3948 68.6674 32.4216 68.8156 32.4773C68.8289 32.6102 68.8353 32.7437 68.8346 32.8773V34.1723C68.698 34.2135 68.5563 34.2357 68.4136 34.2383C67.7136 34.2383 67.6816 33.8453 67.6816 33.3203C67.6816 32.8483 67.7336 32.3943 68.3506 32.3943M67.1076 35.8683C67.5168 35.9438 67.9315 35.986 68.3476 35.9943C69.0196 35.9943 69.5796 35.8063 69.5796 35.0223V32.6593C69.5796 32.4593 69.5716 32.2823 69.5546 32.0913C69.1841 31.8997 68.7716 31.8037 68.3546 31.8123C67.3766 31.8123 66.9336 32.1673 66.9336 33.3203C66.9336 34.4733 67.3566 34.8203 68.2666 34.8203C68.4586 34.8184 68.6498 34.7973 68.8376 34.7573V34.8473C68.8376 35.2163 68.6626 35.4023 68.2606 35.4023C67.8968 35.3953 67.5338 35.3659 67.1736 35.3143L67.1076 35.8683Z" fill="white"/>
<path d="M70.9465 33.1983C70.9465 32.7283 71.0205 32.3873 71.5725 32.3873C71.9985 32.3873 72.1435 32.6003 72.1435 32.9933C72.1445 33.0333 72.1429 33.0734 72.1385 33.1133C71.9635 33.1383 71.6605 33.1623 71.4635 33.1733L70.9465 33.1983ZM71.5095 34.8913C71.949 34.8911 72.3877 34.8526 72.8205 34.7763L72.7575 34.2113C72.3999 34.2603 72.0395 34.2867 71.6785 34.2903C71.2445 34.2903 70.9955 34.1753 70.9685 33.7053L71.4625 33.6803C71.8755 33.6583 72.5385 33.5933 72.8795 33.5333C72.8845 33.4513 72.8905 33.3723 72.8905 33.2923C72.8905 32.3853 72.6665 31.8123 71.5715 31.8123C70.5665 31.8123 70.2275 32.2633 70.2275 33.3503C70.2275 34.2383 70.4935 34.8913 71.5095 34.8913Z" fill="white"/>
<path d="M74.2899 32.8954C74.2891 32.7618 74.2955 32.6283 74.3089 32.4954C74.4571 32.4397 74.6146 32.4129 74.7729 32.4164C75.2919 32.4164 75.3729 32.5934 75.3729 33.0164V34.8524H76.1209V32.9454C76.1209 32.2984 76.0039 31.8144 74.9209 31.8144C74.4553 31.7977 73.9926 31.8934 73.5719 32.0934C73.5559 32.2874 73.5469 32.4594 73.5469 32.6644V34.8544H74.2949V32.8934L74.2899 32.8954Z" fill="white"/>
<path d="M78.8484 34.2143C78.6717 34.2551 78.4916 34.2789 78.3104 34.2853C77.5564 34.2853 77.5264 33.9983 77.5264 33.3263C77.5264 32.6163 77.6024 32.4083 78.3054 32.4083C78.4892 32.4134 78.672 32.4362 78.8514 32.4763L78.9114 31.9273C78.6523 31.8478 78.3824 31.809 78.1114 31.8123C77.0054 31.8123 76.7754 32.3423 76.7754 33.3253C76.7754 34.1253 76.9314 34.8903 77.9364 34.8903C78.2679 34.8927 78.5984 34.8541 78.9204 34.7753L78.8484 34.2143Z" fill="white"/>
<path d="M80.0837 33.1983C80.0837 32.7283 80.1577 32.3873 80.7097 32.3873C81.1357 32.3873 81.2807 32.6003 81.2807 32.9933C81.2814 33.0333 81.2794 33.0734 81.2747 33.1133C81.0997 33.1383 80.7967 33.1623 80.6007 33.1733L80.0837 33.1983ZM80.6467 34.8913C81.0862 34.8911 81.5249 34.8526 81.9577 34.7763L81.8947 34.2113C81.5371 34.2603 81.1767 34.2867 80.8157 34.2903C80.3817 34.2903 80.1327 34.1753 80.1057 33.7053L80.6007 33.6803C81.0127 33.6583 81.6767 33.5933 82.0177 33.5333C82.0227 33.4513 82.0287 33.3723 82.0287 33.2923C82.0287 32.3853 81.8047 31.8123 80.7097 31.8123C79.7047 31.8123 79.3657 32.2633 79.3657 33.3503C79.3657 34.2383 79.6307 34.8913 80.6467 34.8913Z" fill="white"/>
<path d="M85.1118 31.5873C85.1118 31.3253 85.2488 31.2073 85.5048 31.2073H85.7368L85.7907 30.6833C85.6385 30.6631 85.4853 30.6521 85.3318 30.6503C85.2029 30.6319 85.0716 30.6433 84.9478 30.6835C84.8241 30.7238 84.7112 30.7918 84.6178 30.8825C84.5245 30.9731 84.4531 31.084 84.4092 31.2065C84.3654 31.329 84.3502 31.46 84.3647 31.5893V31.8513H83.8647V32.4193H84.3597V34.8533H85.1078V32.4203H85.7248V31.8523H85.1078L85.1118 31.5873Z" fill="white"/>
<path d="M87.4797 34.2913C87.0077 34.2913 86.8867 34.1053 86.8867 33.3513C86.8867 32.5973 87.0097 32.4123 87.4797 32.4123C87.9497 32.4123 88.0797 32.6223 88.0797 33.3513C88.0797 34.0803 87.9537 34.2913 87.4797 34.2913ZM87.4797 34.8913C88.4687 34.8913 88.8267 34.4593 88.8267 33.3503C88.8267 32.2413 88.4687 31.8103 87.4797 31.8103C86.4907 31.8103 86.1357 32.2313 86.1357 33.3503C86.1357 34.4693 86.4907 34.8913 87.4797 34.8913Z" fill="white"/>
<path d="M90.2215 34.8533V32.9083C90.2208 32.7748 90.2271 32.6413 90.2405 32.5083C90.399 32.4433 90.5692 32.4117 90.7405 32.4153C90.8127 32.4145 90.8848 32.4181 90.9565 32.4263L91.0165 31.8263C90.9165 31.8203 90.8165 31.8153 90.7105 31.8153C90.2935 31.8068 89.881 31.9027 89.5105 32.0943C89.4924 32.2831 89.484 32.4727 89.4855 32.6623V34.8553L90.2215 34.8533Z" fill="white"/>
<path d="M93.1887 31.1252V31.8522H92.6997V32.4202H93.1887V34.0462C93.1887 34.6142 93.4567 34.8902 94.0887 34.8902C94.2612 34.8866 94.433 34.8692 94.6027 34.8382L94.5457 34.3082C94.4607 34.3132 94.3767 34.3162 94.2917 34.3162C94.0407 34.3162 93.9367 34.2162 93.9367 33.9692V32.4182H94.5367V31.8502H93.9367V31.0002L93.1887 31.1252Z" fill="white"/>
<path d="M96.3376 34.2913C95.8656 34.2913 95.7447 34.1053 95.7447 33.3513C95.7447 32.5973 95.8676 32.4123 96.3376 32.4123C96.8076 32.4123 96.9377 32.6223 96.9377 33.3513C96.9377 34.0803 96.8146 34.2913 96.3376 34.2913ZM96.3376 34.8913C97.3266 34.8913 97.6847 34.4593 97.6847 33.3503C97.6847 32.2413 97.3266 31.8103 96.3376 31.8103C95.3486 31.8103 94.9937 32.2313 94.9937 33.3503C94.9937 34.4693 95.3486 34.8913 96.3376 34.8913Z" fill="white"/>
<path d="M99.0935 32.8953C99.0927 32.7617 99.099 32.6282 99.1125 32.4953C99.2332 32.4435 99.3631 32.4166 99.4945 32.4163C99.9045 32.4163 99.9945 32.6323 99.9945 33.0163V34.8573H100.742V32.9483C100.745 32.8032 100.731 32.6583 100.701 32.5163C100.836 32.4528 100.982 32.4187 101.13 32.4163C101.551 32.4163 101.644 32.6243 101.644 33.0163V34.8573H102.392V32.9483C102.392 32.3333 102.25 31.8173 101.292 31.8173C100.98 31.8198 100.67 31.8781 100.377 31.9893C100.158 31.8626 99.9064 31.8029 99.6535 31.8173C99.2131 31.8093 98.7771 31.9049 98.3805 32.0963C98.3635 32.2873 98.3555 32.4623 98.3555 32.6643V34.8543H99.1035V32.8983L99.0935 32.8953Z" fill="white"/>
<path d="M104.391 34.2913C103.919 34.2913 103.798 34.1053 103.798 33.3513C103.798 32.5973 103.921 32.4123 104.391 32.4123C104.861 32.4123 104.991 32.6223 104.991 33.3513C104.991 34.0803 104.868 34.2913 104.391 34.2913ZM104.391 34.8913C105.38 34.8913 105.738 34.4593 105.738 33.3503C105.738 32.2413 105.38 31.8103 104.391 31.8103C103.402 31.8103 103.047 32.2313 103.047 33.3503C103.047 34.4693 103.402 34.8913 104.391 34.8913Z" fill="white"/>
<path d="M107.135 34.8533V32.9083C107.134 32.7748 107.14 32.6413 107.154 32.5083C107.312 32.4431 107.482 32.4114 107.654 32.4153C107.726 32.4145 107.798 32.4181 107.87 32.4263L107.93 31.8263C107.83 31.8203 107.73 31.8153 107.624 31.8153C107.207 31.8068 106.794 31.9027 106.424 32.0943C106.405 32.2831 106.397 32.4727 106.399 32.6623V34.8553L107.135 34.8533Z" fill="white"/>
<path d="M109.162 34.8533V32.9083C109.161 32.7748 109.168 32.6413 109.181 32.5083C109.339 32.4433 109.51 32.4117 109.681 32.4153C109.753 32.4145 109.825 32.4181 109.897 32.4263L109.957 31.8263C109.857 31.8203 109.757 31.8153 109.651 31.8153C109.234 31.8068 108.821 31.9027 108.451 32.0943C108.433 32.2831 108.424 32.4727 108.426 32.6623V34.8553L109.162 34.8533Z" fill="white"/>
<path d="M111.678 34.2913C111.205 34.2913 111.085 34.1053 111.085 33.3513C111.085 32.5973 111.208 32.4123 111.678 32.4123C112.148 32.4123 112.278 32.6223 112.278 33.3513C112.278 34.0803 112.152 34.2913 111.678 34.2913ZM111.678 34.8913C112.667 34.8913 113.024 34.4593 113.024 33.3503C113.024 32.2413 112.666 31.8103 111.678 31.8103C110.69 31.8103 110.334 32.2313 110.334 33.3503C110.334 34.4693 110.689 34.8913 111.678 34.8913Z" fill="white"/>
<path d="M113.393 31.8523L114.046 34.3923C114.136 34.7393 114.308 34.8923 114.573 34.8923C114.838 34.8923 115.015 34.7313 115.116 34.3983L115.523 33.0163L115.944 34.4013C116.044 34.7373 116.223 34.8963 116.482 34.8963C116.741 34.8963 116.916 34.7373 117.001 34.4013L117.654 31.8553H116.917L116.45 34.0813L116.029 32.5713C115.936 32.2413 115.775 32.0883 115.535 32.0883C115.295 32.0883 115.135 32.2383 115.04 32.5713L114.617 34.0873L114.153 31.8553H113.394L113.393 31.8523Z" fill="white"/>
<path d="M56.2517 11.4394L52.3037 11.4443L52.3257 28.9603L56.2737 28.9554L56.2517 11.4394Z" fill="white"/>
<path d="M71.3757 28.9343H67.5267L67.5177 21.9903C67.5177 20.051 66.8247 19.0843 65.4387 19.0903C65.1237 19.0837 64.8113 19.1497 64.5258 19.2832C64.2404 19.4167 63.9896 19.6142 63.7927 19.8603C63.3467 20.4125 63.1167 21.1081 63.1457 21.8173L63.1547 28.9513H59.2967L59.2817 16.4434H63.1397V18.4233H63.1887C63.582 17.7084 64.1654 17.1162 64.8743 16.7122C65.5833 16.3082 66.3902 16.1082 67.2057 16.1343C69.9737 16.131 71.3604 17.8474 71.3657 21.2834L71.3757 28.9414V28.9343Z" fill="white"/>
<path d="M81.6536 28.5863C81.1866 28.7113 80.2026 29.0093 79.6836 29.0863C79.1484 29.1664 78.6078 29.2062 78.0666 29.2053C77.5878 29.2122 77.1123 29.1255 76.6666 28.9503C76.2573 28.788 75.8898 28.5354 75.5916 28.2113C75.285 27.8749 75.0502 27.4795 74.9016 27.0493C74.7325 26.553 74.6483 26.0317 74.6526 25.5073L74.6436 18.7073H72.6206V16.0983H74.6406V13.5653L78.4756 11.9713V16.0993H81.6526V18.7053H78.4786L78.4876 24.6513C78.4553 25.0858 78.5926 25.5159 78.8706 25.8513C79 25.9882 79.1574 26.0956 79.332 26.1661C79.5066 26.2367 79.6945 26.2688 79.8826 26.2603C80.0959 26.2607 80.3087 26.2393 80.5176 26.1963C80.7296 26.1583 81.4406 25.9183 81.6526 25.8753L81.6536 28.5863Z" fill="white"/>
<path d="M91.0607 21.3844C91.0607 19.5957 90.3341 18.702 88.8807 18.7034C88.5737 18.7053 88.2709 18.7754 87.9942 18.9086C87.7175 19.0417 87.4738 19.2346 87.2807 19.4734C86.817 20.0145 86.5295 20.6844 86.4567 21.3934L91.0657 21.3874L91.0607 21.3844ZM94.6408 23.7514L86.4808 23.7614C86.6141 25.5754 87.7591 26.481 89.9158 26.4784C91.193 26.5045 92.451 26.1641 93.5408 25.4974V28.2834C92.1372 28.9566 90.5901 29.2759 89.0347 29.2134C88.1773 29.3006 87.3113 29.1964 86.499 28.9083C85.6868 28.6202 84.9486 28.1554 84.3378 27.5474C83.727 26.9395 83.2587 26.2035 82.9668 25.3926C82.6749 24.5817 82.5666 23.7162 82.6497 22.8584C82.6003 21.9562 82.7344 21.0534 83.0437 20.2045C83.3531 19.3555 83.8314 18.5782 84.4497 17.9194C85.025 17.3267 85.7163 16.8589 86.4804 16.5453C87.2444 16.2316 88.065 16.0788 88.8908 16.0964C89.6708 16.0482 90.4522 16.1674 91.1824 16.4459C91.9127 16.7244 92.5749 17.1559 93.1247 17.7114C94.1727 18.9341 94.7098 20.5133 94.6247 22.1214V23.7504L94.6408 23.7514Z" fill="white"/>
<path d="M140.844 21.3233C140.844 19.5347 140.118 18.641 138.664 18.6423C138.357 18.6443 138.055 18.7144 137.778 18.8475C137.501 18.9807 137.258 19.1736 137.064 19.4123C136.601 19.9535 136.313 20.6234 136.24 21.3323L140.849 21.3263L140.844 21.3233ZM144.424 23.6903L136.264 23.7003C136.398 25.5143 137.543 26.42 139.699 26.4173C140.977 26.4435 142.235 26.1031 143.324 25.4363V28.2223C141.921 28.8956 140.374 29.2149 138.818 29.1523C137.961 29.2395 137.095 29.1353 136.283 28.8472C135.47 28.5591 134.732 28.0943 134.122 27.4864C133.511 26.8784 133.042 26.1424 132.75 25.3316C132.459 24.5207 132.35 23.6551 132.433 22.7973C132.384 21.8952 132.518 20.9923 132.827 20.1434C133.137 19.2945 133.615 18.5171 134.233 17.8583C134.809 17.2657 135.5 16.7979 136.264 16.4842C137.028 16.1706 137.849 16.0178 138.674 16.0353C139.455 15.9871 140.236 16.1063 140.966 16.3849C141.696 16.6634 142.359 17.0949 142.908 17.6503C143.956 18.8731 144.493 20.4522 144.408 22.0603V23.6893L144.424 23.6903Z" fill="white"/>
<path d="M100.054 24.6583C100.022 25.0939 100.158 25.5251 100.435 25.8633C100.564 26 100.722 26.1072 100.896 26.1776C101.071 26.248 101.259 26.28 101.447 26.2713C101.66 26.2714 101.873 26.2496 102.082 26.2063C102.293 26.1683 102.508 26.1273 102.719 26.0843V28.7973C102.234 28.9246 101.743 29.0248 101.247 29.0973C100.711 29.177 100.171 29.2164 99.6297 29.2153C99.1511 29.2227 98.6756 29.1368 98.2297 28.9623C97.8205 28.7983 97.4529 28.5452 97.1537 28.2213C96.8487 27.8845 96.6147 27.4896 96.4657 27.0603C96.2956 26.5643 96.2118 26.0427 96.2177 25.5183L96.1987 10.3873H100.034L100.054 24.6583Z" fill="white"/>
<path d="M107.567 24.6493C107.535 25.0849 107.671 25.5161 107.948 25.8543C108.078 25.9913 108.236 26.0987 108.411 26.1691C108.586 26.2395 108.774 26.2713 108.963 26.2623C109.176 26.2624 109.389 26.2406 109.598 26.1973C109.809 26.1593 110.024 26.1183 110.235 26.0753V28.7883C109.75 28.9156 109.259 29.0157 108.763 29.0883C108.227 29.168 107.686 29.2074 107.145 29.2063C106.666 29.2138 106.191 29.1278 105.745 28.9533C105.336 28.7893 104.968 28.5361 104.669 28.2123C104.364 27.8756 104.13 27.4807 103.981 27.0513C103.811 26.5552 103.727 26.0337 103.733 25.5093L103.714 10.3783H107.549L107.567 24.6573V24.6493Z" fill="white"/>
<path d="M114.992 24.6403C114.96 25.0759 115.096 25.507 115.373 25.8453C115.503 25.9823 115.661 26.0897 115.836 26.1601C116.011 26.2305 116.199 26.2623 116.388 26.2533C116.601 26.2533 116.813 26.2315 117.022 26.1883C117.234 26.1503 117.448 26.1093 117.66 26.0663V28.7793C117.175 28.9066 116.684 29.0067 116.188 29.0793C115.653 29.1589 115.112 29.1983 114.571 29.1973C114.092 29.2047 113.617 29.1187 113.171 28.9443C112.762 28.7803 112.394 28.5271 112.095 28.2033C111.79 27.8665 111.556 27.4716 111.407 27.0423C111.237 26.5462 111.153 26.0247 111.159 25.5003L111.148 16.3783H114.983L114.993 24.6483L114.992 24.6403ZM113.117 14.3953C112.528 14.4191 111.954 14.2116 111.517 13.8173C111.318 13.6385 111.16 13.4194 111.052 13.1745C110.945 12.9296 110.891 12.6646 110.895 12.3973C110.887 12.1299 110.939 11.8641 111.046 11.619C111.153 11.3738 111.312 11.1554 111.514 10.9793C111.972 10.6223 112.536 10.4285 113.117 10.4285C113.698 10.4285 114.262 10.6223 114.72 10.9793C114.921 11.1551 115.081 11.3734 115.188 11.6184C115.295 11.8634 115.347 12.129 115.339 12.3963C115.347 12.6672 115.297 12.9368 115.191 13.1862C115.084 13.4355 114.925 13.6588 114.724 13.8403C114.279 14.2227 113.705 14.4224 113.119 14.3993" fill="white"/>
<path d="M127.406 22.8614V21.8704C127.424 21.1341 127.175 20.4161 126.706 19.8484C126.485 19.5799 126.205 19.3654 125.888 19.2212C125.572 19.077 125.226 19.007 124.879 19.0164C124.486 19.0021 124.096 19.0861 123.744 19.2607C123.392 19.4353 123.089 19.6951 122.863 20.0164C122.328 20.8571 122.072 21.8456 122.133 22.8404C122.088 23.7189 122.334 24.5878 122.833 25.3124C123.053 25.6069 123.342 25.8434 123.674 26.0016C124.006 26.1597 124.371 26.2348 124.739 26.2204C125.111 26.2298 125.48 26.1509 125.816 25.9901C126.152 25.8294 126.445 25.5913 126.672 25.2954C127.193 24.5935 127.453 23.7322 127.408 22.8594M131.225 27.4314C131.288 28.422 131.141 29.4147 130.795 30.345C130.449 31.2754 129.912 32.1225 129.217 32.8314C127.594 34.2042 125.5 34.8917 123.379 34.7484C122.006 34.8112 120.637 34.5662 119.372 34.0314V30.7824C120.548 31.4991 121.895 31.886 123.272 31.9024C124.377 31.9689 125.463 31.5945 126.292 30.8614C126.656 30.4951 126.939 30.0568 127.124 29.5746C127.308 29.0924 127.39 28.577 127.364 28.0614V27.0614H127.318C126.919 27.7322 126.345 28.2822 125.659 28.6531C124.972 29.0239 124.197 29.2017 123.418 29.1674C122.698 29.1985 121.981 29.0632 121.322 28.772C120.662 28.4808 120.079 28.0415 119.618 27.4884C118.624 26.1992 118.123 24.5971 118.207 22.9714C118.107 21.158 118.659 19.3687 119.763 17.9264C120.258 17.3192 120.888 16.8344 121.601 16.5097C122.315 16.1851 123.093 16.0292 123.877 16.0544C124.552 16.0155 125.226 16.1577 125.828 16.4662C126.43 16.7747 126.939 17.2384 127.302 17.8094H127.348V16.3544H131.209L131.225 27.4314Z" fill="white"/>
<path d="M157.892 28.8273H154.043L154.034 21.8763C154.034 19.937 153.341 18.9703 151.955 18.9763C151.64 18.9698 151.327 19.0358 151.042 19.1693C150.757 19.3028 150.506 19.5003 150.309 19.7463C149.863 20.2988 149.633 20.9948 149.662 21.7043L149.671 28.8373H145.813L145.798 16.3293H149.656V18.3093H149.705C150.098 17.5943 150.682 17.0021 151.391 16.5981C152.1 16.1941 152.907 15.9941 153.723 16.0203C156.491 16.017 157.878 17.7333 157.883 21.1693L157.893 28.8273H157.892Z" fill="white"/>
<path d="M169.547 28.3643C168.374 28.9345 167.075 29.1954 165.774 29.1223C164.918 29.1606 164.064 29.026 163.262 28.7267C162.46 28.4274 161.726 27.9695 161.105 27.3803C160.511 26.7943 160.045 26.0912 159.736 25.3158C159.428 24.5403 159.284 23.7093 159.314 22.8753C159.263 21.9514 159.406 21.0271 159.733 20.1616C160.06 19.2961 160.564 18.5085 161.214 17.8493C161.902 17.2196 162.709 16.7325 163.586 16.416C164.464 16.0995 165.396 15.96 166.328 16.0053C167.426 15.929 168.526 16.128 169.528 16.5843V19.8623C168.753 19.2698 167.803 18.9531 166.828 18.9623C166.346 18.9373 165.863 19.0109 165.41 19.1786C164.957 19.3462 164.544 19.6044 164.194 19.9373C163.859 20.2956 163.601 20.718 163.435 21.179C163.268 21.64 163.197 22.13 163.226 22.6193C163.201 23.093 163.27 23.567 163.431 24.0134C163.591 24.4599 163.839 24.8698 164.16 25.2193C164.497 25.5441 164.898 25.7956 165.337 25.9583C165.776 26.1209 166.244 26.191 166.712 26.1643C167.722 26.1477 168.704 25.8317 169.534 25.2563V28.3563L169.547 28.3643Z" fill="white"/>
<path d="M174.649 24.5663C174.617 25.0019 174.753 25.433 175.03 25.7713C175.159 25.908 175.317 26.0152 175.491 26.0857C175.666 26.1561 175.854 26.188 176.042 26.1793C176.255 26.1794 176.468 26.1576 176.677 26.1143C176.889 26.0763 177.103 26.0353 177.315 25.9923V28.7053C176.83 28.8326 176.339 28.9327 175.843 29.0053C175.307 29.0849 174.767 29.1243 174.226 29.1233C173.747 29.1307 173.271 29.0447 172.826 28.8703C172.416 28.7063 172.049 28.4532 171.75 28.1293C171.445 27.7925 171.211 27.3976 171.062 26.9683C170.892 26.4722 170.808 25.9507 170.814 25.4263L170.803 16.3043H174.638L174.649 24.5663ZM172.767 14.3223C172.178 14.346 171.604 14.1385 171.167 13.7443C170.968 13.5655 170.809 13.3464 170.702 13.1015C170.595 12.8566 170.541 12.5916 170.545 12.3243C170.537 12.0569 170.589 11.7912 170.696 11.546C170.803 11.3009 170.962 11.0824 171.164 10.9063C171.622 10.5493 172.186 10.3555 172.767 10.3555C173.347 10.3555 173.912 10.5493 174.37 10.9063C174.572 11.0816 174.732 11.2998 174.839 11.5449C174.946 11.79 174.997 12.0559 174.989 12.3233C174.997 12.5942 174.947 12.8638 174.841 13.1132C174.734 13.3626 174.575 13.5858 174.374 13.7673C173.929 14.1501 173.355 14.3499 172.769 14.3263" fill="white"/>
<path d="M185.715 23.7113V22.8673L183.443 23.1673C182.188 23.3313 181.562 23.898 181.564 24.8673C181.558 25.0694 181.595 25.2703 181.674 25.4564C181.753 25.6425 181.871 25.8093 182.021 25.9453C182.367 26.238 182.812 26.3878 183.265 26.3643C183.597 26.375 183.927 26.3132 184.233 26.1831C184.539 26.0531 184.812 25.858 185.035 25.6113C185.499 25.0896 185.743 24.4089 185.717 23.7113M189.352 28.7883H185.7V26.9883H185.651C185.286 27.6499 184.744 28.1971 184.087 28.569C183.429 28.9409 182.681 29.1227 181.926 29.0943C181.404 29.1241 180.881 29.0486 180.389 28.8723C179.897 28.696 179.445 28.4226 179.061 28.0683C178.707 27.7053 178.431 27.2735 178.251 26.7996C178.071 26.3256 177.99 25.8198 178.014 25.3133C178.014 22.8873 179.449 21.4847 182.319 21.1053L185.719 20.6513C185.719 19.2833 184.976 18.6003 183.491 18.6023C181.973 18.6116 180.493 19.0771 179.243 19.9383V17.0313C179.943 16.6972 180.682 16.45 181.443 16.2953C182.277 16.0948 183.132 15.9878 183.99 15.9763C187.555 15.9717 189.34 17.7483 189.345 21.3063L189.354 28.7823L189.352 28.7883Z" fill="white"/>
</svg>
